<mxfile host="65bd71144e">
    <diagram name="PoslAv" id="7ulJbNX_yPvanoYfNX1G">
        <mxGraphModel dx="1460" dy="1045" grid="1" gridSize="10" guides="1" tooltips="1" connect="1" arrows="1" fold="1" page="1" pageScale="1" pageWidth="827" pageHeight="1169" math="0" shadow="0">
            <root>
                <mxCell id="kp6pLIjXGNNMmy_xKE_i-0"/>
                <mxCell id="kp6pLIjXGNNMmy_xKE_i-1" parent="kp6pLIjXGNNMmy_xKE_i-0"/>
                <mxCell id="kp6pLIjXGNNMmy_xKE_i-2" style="edgeStyle=none;html=1;exitX=0.5;exitY=1;exitDx=0;exitDy=0;entryX=0.5;entryY=0;entryDx=0;entryDy=0;strokeWidth=3;endArrow=none;endFill=0;" parent="kp6pLIjXGNNMmy_xKE_i-1" source="kp6pLIjXGNNMmy_xKE_i-3" target="kp6pLIjXGNNMmy_xKE_i-6" edge="1">
                    <mxGeometry relative="1" as="geometry"/>
                </mxCell>
                <mxCell id="kp6pLIjXGNNMmy_xKE_i-3" value="&lt;font style=&quot;font-size: 20px&quot;&gt;Начало&lt;/font&gt;" style="rounded=1;whiteSpace=wrap;html=1;strokeWidth=3;arcSize=50;" parent="kp6pLIjXGNNMmy_xKE_i-1" vertex="1">
                    <mxGeometry x="90" y="30" width="200" height="80" as="geometry"/>
                </mxCell>
                <mxCell id="kp6pLIjXGNNMmy_xKE_i-4" value="&lt;font style=&quot;font-size: 20px&quot;&gt;Конец&lt;/font&gt;" style="rounded=1;whiteSpace=wrap;html=1;strokeWidth=3;arcSize=50;" parent="kp6pLIjXGNNMmy_xKE_i-1" vertex="1">
                    <mxGeometry x="90" y="1300" width="200" height="80" as="geometry"/>
                </mxCell>
                <mxCell id="kp6pLIjXGNNMmy_xKE_i-5" style="edgeStyle=none;html=1;exitX=0.5;exitY=1;exitDx=0;exitDy=0;endArrow=none;endFill=0;strokeWidth=3;" parent="kp6pLIjXGNNMmy_xKE_i-1" source="kp6pLIjXGNNMmy_xKE_i-6" edge="1">
                    <mxGeometry relative="1" as="geometry">
                        <mxPoint x="190" y="214" as="targetPoint"/>
                    </mxGeometry>
                </mxCell>
                <mxCell id="kp6pLIjXGNNMmy_xKE_i-6" value="&lt;span style=&quot;font-size: 20px&quot;&gt;Матрица смежностей&lt;br&gt;D[M][M]&lt;/span&gt;" style="shape=parallelogram;perimeter=parallelogramPerimeter;whiteSpace=wrap;html=1;fixedSize=1;strokeWidth=3;" parent="kp6pLIjXGNNMmy_xKE_i-1" vertex="1">
                    <mxGeometry x="90" y="120" width="200" height="80" as="geometry"/>
                </mxCell>
                <mxCell id="1GrA9ux8_eHwMuUke70H-17" style="edgeStyle=none;html=1;exitX=0.5;exitY=0;exitDx=0;exitDy=0;entryX=0.5;entryY=1;entryDx=0;entryDy=0;fontSize=20;endArrow=none;endFill=0;strokeWidth=3;" edge="1" parent="kp6pLIjXGNNMmy_xKE_i-1" source="kp6pLIjXGNNMmy_xKE_i-8" target="kp6pLIjXGNNMmy_xKE_i-10">
                    <mxGeometry relative="1" as="geometry"/>
                </mxCell>
                <mxCell id="kp6pLIjXGNNMmy_xKE_i-8" value="&lt;span style=&quot;font-size: 20px&quot;&gt;Текущая стоимость = стоимость i-ого пути&lt;/span&gt;" style="rounded=0;whiteSpace=wrap;html=1;strokeWidth=3;" parent="kp6pLIjXGNNMmy_xKE_i-1" vertex="1">
                    <mxGeometry x="90" y="800" width="200" height="80" as="geometry"/>
                </mxCell>
                <mxCell id="1GrA9ux8_eHwMuUke70H-10" style="edgeStyle=none;html=1;exitX=0.5;exitY=0;exitDx=0;exitDy=0;entryX=0.5;entryY=1;entryDx=0;entryDy=0;fontSize=20;strokeWidth=3;endArrow=none;endFill=0;" edge="1" parent="kp6pLIjXGNNMmy_xKE_i-1" source="kp6pLIjXGNNMmy_xKE_i-10" target="1GrA9ux8_eHwMuUke70H-7">
                    <mxGeometry relative="1" as="geometry"/>
                </mxCell>
                <mxCell id="kp6pLIjXGNNMmy_xKE_i-10" value="&lt;font style=&quot;font-size: 20px&quot;&gt;Цикл i = 1; i &amp;lt; кол-во возможных путей&lt;br&gt;&lt;/font&gt;" style="shape=loopLimit;whiteSpace=wrap;html=1;strokeWidth=3;size=40;" parent="kp6pLIjXGNNMmy_xKE_i-1" vertex="1">
                    <mxGeometry x="90" y="710" width="200" height="80" as="geometry"/>
                </mxCell>
                <mxCell id="kp6pLIjXGNNMmy_xKE_i-15" style="edgeStyle=none;html=1;exitX=0.5;exitY=1;exitDx=0;exitDy=0;entryX=0.5;entryY=0;entryDx=0;entryDy=0;endArrow=none;endFill=0;strokeWidth=3;" parent="kp6pLIjXGNNMmy_xKE_i-1" source="kp6pLIjXGNNMmy_xKE_i-16" target="kp6pLIjXGNNMmy_xKE_i-4" edge="1">
                    <mxGeometry relative="1" as="geometry"/>
                </mxCell>
                <mxCell id="kp6pLIjXGNNMmy_xKE_i-16" value="&lt;span style=&quot;font-size: 20px&quot;&gt;Минимальная стоимость,&lt;br&gt;короткий путь&lt;/span&gt;" style="shape=parallelogram;perimeter=parallelogramPerimeter;whiteSpace=wrap;html=1;fixedSize=1;strokeWidth=3;" parent="kp6pLIjXGNNMmy_xKE_i-1" vertex="1">
                    <mxGeometry x="90" y="1210" width="200" height="80" as="geometry"/>
                </mxCell>
                <mxCell id="kp6pLIjXGNNMmy_xKE_i-21" style="edgeStyle=none;html=1;exitX=0.5;exitY=0;exitDx=0;exitDy=0;endArrow=none;endFill=0;strokeWidth=3;" parent="kp6pLIjXGNNMmy_xKE_i-1" source="kp6pLIjXGNNMmy_xKE_i-22" edge="1" target="kp6pLIjXGNNMmy_xKE_i-16">
                    <mxGeometry relative="1" as="geometry">
                        <mxPoint x="190" y="1210.0000000000002" as="targetPoint"/>
                    </mxGeometry>
                </mxCell>
                <mxCell id="kp6pLIjXGNNMmy_xKE_i-22" value="&lt;font style=&quot;font-size: 20px&quot;&gt;&lt;br&gt;&lt;/font&gt;" style="shape=loopLimit;whiteSpace=wrap;html=1;strokeWidth=3;size=40;rotation=-180;" parent="kp6pLIjXGNNMmy_xKE_i-1" vertex="1">
                    <mxGeometry x="90" y="1120" width="200" height="80" as="geometry"/>
                </mxCell>
                <mxCell id="kp6pLIjXGNNMmy_xKE_i-23" value="&lt;font style=&quot;font-size: 20px&quot;&gt;i++&lt;/font&gt;" style="text;html=1;strokeColor=none;fillColor=none;align=center;verticalAlign=middle;whiteSpace=wrap;rounded=0;" parent="kp6pLIjXGNNMmy_xKE_i-1" vertex="1">
                    <mxGeometry x="170" y="1150" width="40" height="20" as="geometry"/>
                </mxCell>
                <mxCell id="kp6pLIjXGNNMmy_xKE_i-26" value="&lt;font style=&quot;font-size: 20px&quot;&gt;Инициализация минимальной, текущей стоимости пути и кол-ва путей нулей&lt;/font&gt;" style="rounded=0;whiteSpace=wrap;html=1;strokeWidth=3;" parent="kp6pLIjXGNNMmy_xKE_i-1" vertex="1">
                    <mxGeometry x="90" y="210" width="200" height="120" as="geometry"/>
                </mxCell>
                <mxCell id="1GrA9ux8_eHwMuUke70H-21" style="edgeStyle=none;html=1;exitX=0.5;exitY=1;exitDx=0;exitDy=0;fontSize=20;endArrow=none;endFill=0;strokeWidth=3;entryX=0.5;entryY=1;entryDx=0;entryDy=0;" edge="1" parent="kp6pLIjXGNNMmy_xKE_i-1" source="kp6pLIjXGNNMmy_xKE_i-28" target="kp6pLIjXGNNMmy_xKE_i-22">
                    <mxGeometry relative="1" as="geometry">
                        <mxPoint x="190" y="1100" as="targetPoint"/>
                        <Array as="points">
                            <mxPoint x="390" y="1100"/>
                            <mxPoint x="190" y="1100"/>
                        </Array>
                    </mxGeometry>
                </mxCell>
                <mxCell id="kp6pLIjXGNNMmy_xKE_i-28" value="&lt;span style=&quot;font-size: 20px&quot;&gt;Минимальная стоимость = текущая стоимость&lt;br&gt;&lt;/span&gt;" style="rounded=0;whiteSpace=wrap;html=1;strokeWidth=3;" parent="kp6pLIjXGNNMmy_xKE_i-1" vertex="1">
                    <mxGeometry x="290" y="990" width="200" height="80" as="geometry"/>
                </mxCell>
                <mxCell id="1GrA9ux8_eHwMuUke70H-11" style="edgeStyle=none;html=1;exitX=0.5;exitY=0;exitDx=0;exitDy=0;entryX=0.5;entryY=1;entryDx=0;entryDy=0;fontSize=20;endArrow=none;endFill=0;strokeWidth=3;" edge="1" parent="kp6pLIjXGNNMmy_xKE_i-1" source="1GrA9ux8_eHwMuUke70H-0" target="kp6pLIjXGNNMmy_xKE_i-26">
                    <mxGeometry relative="1" as="geometry"/>
                </mxCell>
                <mxCell id="1GrA9ux8_eHwMuUke70H-12" style="edgeStyle=none;html=1;exitX=0.5;exitY=1;exitDx=0;exitDy=0;entryX=0.5;entryY=0;entryDx=0;entryDy=0;fontSize=20;endArrow=none;endFill=0;strokeWidth=3;" edge="1" parent="kp6pLIjXGNNMmy_xKE_i-1" source="1GrA9ux8_eHwMuUke70H-0" target="1GrA9ux8_eHwMuUke70H-1">
                    <mxGeometry relative="1" as="geometry"/>
                </mxCell>
                <mxCell id="1GrA9ux8_eHwMuUke70H-0" value="&lt;font style=&quot;font-size: 20px&quot;&gt;Выбор начальной вершины, откуда строится маршрут&lt;/font&gt;" style="rounded=0;whiteSpace=wrap;html=1;strokeWidth=3;" vertex="1" parent="kp6pLIjXGNNMmy_xKE_i-1">
                    <mxGeometry x="90" y="340" width="200" height="90" as="geometry"/>
                </mxCell>
                <mxCell id="1GrA9ux8_eHwMuUke70H-6" value="" style="group" vertex="1" connectable="0" parent="kp6pLIjXGNNMmy_xKE_i-1">
                    <mxGeometry x="90" y="440" width="200" height="120" as="geometry"/>
                </mxCell>
                <mxCell id="1GrA9ux8_eHwMuUke70H-1" value="&lt;font style=&quot;font-size: 20px&quot;&gt;Вызов подпрограммы &lt;br&gt;для получения &lt;br&gt;всех возможных путей&lt;br&gt;&lt;/font&gt;" style="rounded=0;whiteSpace=wrap;html=1;strokeWidth=3;" vertex="1" parent="1GrA9ux8_eHwMuUke70H-6">
                    <mxGeometry width="200" height="120" as="geometry"/>
                </mxCell>
                <mxCell id="1GrA9ux8_eHwMuUke70H-3" value="" style="endArrow=none;html=1;fontSize=20;strokeWidth=3;exitX=0.95;exitY=1.008;exitDx=0;exitDy=0;exitPerimeter=0;" edge="1" parent="1GrA9ux8_eHwMuUke70H-6" source="1GrA9ux8_eHwMuUke70H-1">
                    <mxGeometry width="50" height="50" relative="1" as="geometry">
                        <mxPoint x="190" y="95.5" as="sourcePoint"/>
                        <mxPoint x="190" as="targetPoint"/>
                    </mxGeometry>
                </mxCell>
                <mxCell id="1GrA9ux8_eHwMuUke70H-4" value="" style="endArrow=none;html=1;fontSize=20;strokeWidth=3;exitX=0.058;exitY=1.004;exitDx=0;exitDy=0;exitPerimeter=0;" edge="1" parent="1GrA9ux8_eHwMuUke70H-6" source="1GrA9ux8_eHwMuUke70H-1">
                    <mxGeometry width="50" height="50" relative="1" as="geometry">
                        <mxPoint x="9.999999999999858" y="116.77999999999997" as="sourcePoint"/>
                        <mxPoint x="11" as="targetPoint"/>
                    </mxGeometry>
                </mxCell>
                <mxCell id="1GrA9ux8_eHwMuUke70H-7" value="&lt;font style=&quot;font-size: 20px&quot;&gt;Инициализация&amp;nbsp; стоимости пути стоимостью пути до первой вершины 0&lt;/font&gt;" style="rounded=0;whiteSpace=wrap;html=1;strokeWidth=3;" vertex="1" parent="kp6pLIjXGNNMmy_xKE_i-1">
                    <mxGeometry x="90" y="570" width="200" height="120" as="geometry"/>
                </mxCell>
                <mxCell id="1GrA9ux8_eHwMuUke70H-13" style="edgeStyle=none;html=1;exitX=0.5;exitY=1;exitDx=0;exitDy=0;entryX=0.5;entryY=0;entryDx=0;entryDy=0;fontSize=20;endArrow=none;endFill=0;strokeWidth=3;" edge="1" parent="kp6pLIjXGNNMmy_xKE_i-1" source="1GrA9ux8_eHwMuUke70H-1" target="1GrA9ux8_eHwMuUke70H-7">
                    <mxGeometry relative="1" as="geometry"/>
                </mxCell>
                <mxCell id="1GrA9ux8_eHwMuUke70H-19" style="edgeStyle=none;html=1;exitX=1;exitY=0.5;exitDx=0;exitDy=0;entryX=0.5;entryY=0;entryDx=0;entryDy=0;fontSize=20;endArrow=classicThin;endFill=1;strokeWidth=3;" edge="1" parent="kp6pLIjXGNNMmy_xKE_i-1" source="1GrA9ux8_eHwMuUke70H-14" target="kp6pLIjXGNNMmy_xKE_i-28">
                    <mxGeometry relative="1" as="geometry">
                        <Array as="points">
                            <mxPoint x="390" y="960"/>
                        </Array>
                    </mxGeometry>
                </mxCell>
                <mxCell id="1GrA9ux8_eHwMuUke70H-20" style="edgeStyle=none;html=1;exitX=0;exitY=0.5;exitDx=0;exitDy=0;fontSize=20;endArrow=none;endFill=0;strokeWidth=3;entryX=0.5;entryY=1;entryDx=0;entryDy=0;" edge="1" parent="kp6pLIjXGNNMmy_xKE_i-1" source="1GrA9ux8_eHwMuUke70H-14" target="kp6pLIjXGNNMmy_xKE_i-22">
                    <mxGeometry relative="1" as="geometry">
                        <mxPoint x="190" y="1080" as="targetPoint"/>
                        <Array as="points">
                            <mxPoint x="20" y="960"/>
                            <mxPoint x="20" y="1100"/>
                            <mxPoint x="190" y="1100"/>
                        </Array>
                    </mxGeometry>
                </mxCell>
                <mxCell id="1GrA9ux8_eHwMuUke70H-23" style="edgeStyle=none;html=1;exitX=0.5;exitY=0;exitDx=0;exitDy=0;entryX=0.5;entryY=1;entryDx=0;entryDy=0;fontSize=20;endArrow=none;endFill=0;strokeWidth=3;" edge="1" parent="kp6pLIjXGNNMmy_xKE_i-1" source="1GrA9ux8_eHwMuUke70H-14" target="kp6pLIjXGNNMmy_xKE_i-8">
                    <mxGeometry relative="1" as="geometry"/>
                </mxCell>
                <mxCell id="1GrA9ux8_eHwMuUke70H-14" value="&lt;span&gt;Минимальная &lt;br&gt;стоимость &amp;lt; текущая стоимость&lt;/span&gt;" style="rhombus;whiteSpace=wrap;html=1;fontSize=20;strokeWidth=3;" vertex="1" parent="kp6pLIjXGNNMmy_xKE_i-1">
                    <mxGeometry x="70" y="910" width="240" height="100" as="geometry"/>
                </mxCell>
                <mxCell id="1GrA9ux8_eHwMuUke70H-22" value="Да" style="text;html=1;strokeColor=none;fillColor=none;align=center;verticalAlign=middle;whiteSpace=wrap;rounded=0;fontSize=20;" vertex="1" parent="kp6pLIjXGNNMmy_xKE_i-1">
                    <mxGeometry x="300" y="920" width="60" height="30" as="geometry"/>
                </mxCell>
            </root>
        </mxGraphModel>
    </diagram>
    <diagram name="Myravs" id="b8go124XqZGO7kMyhp2V">
        <mxGraphModel dx="1460" dy="1045" grid="1" gridSize="10" guides="1" tooltips="1" connect="1" arrows="1" fold="1" page="1" pageScale="1" pageWidth="827" pageHeight="1169" math="0" shadow="0">
            <root>
                <mxCell id="LENq8GOz1p6ndR6-8FsJ-0"/>
                <mxCell id="LENq8GOz1p6ndR6-8FsJ-1" parent="LENq8GOz1p6ndR6-8FsJ-0"/>
                <mxCell id="LENq8GOz1p6ndR6-8FsJ-2" style="edgeStyle=none;html=1;exitX=0.5;exitY=1;exitDx=0;exitDy=0;entryX=0.5;entryY=0;entryDx=0;entryDy=0;strokeWidth=3;endArrow=none;endFill=0;" edge="1" parent="LENq8GOz1p6ndR6-8FsJ-1" source="LENq8GOz1p6ndR6-8FsJ-3" target="LENq8GOz1p6ndR6-8FsJ-6">
                    <mxGeometry relative="1" as="geometry"/>
                </mxCell>
                <mxCell id="LENq8GOz1p6ndR6-8FsJ-3" value="&lt;font style=&quot;font-size: 20px&quot;&gt;Начало&lt;/font&gt;" style="rounded=1;whiteSpace=wrap;html=1;strokeWidth=3;arcSize=50;" vertex="1" parent="LENq8GOz1p6ndR6-8FsJ-1">
                    <mxGeometry x="90" y="30" width="200" height="80" as="geometry"/>
                </mxCell>
                <mxCell id="LENq8GOz1p6ndR6-8FsJ-4" value="&lt;font style=&quot;font-size: 20px&quot;&gt;Конец&lt;/font&gt;" style="rounded=1;whiteSpace=wrap;html=1;strokeWidth=3;arcSize=50;" vertex="1" parent="LENq8GOz1p6ndR6-8FsJ-1">
                    <mxGeometry x="90" y="1690" width="200" height="80" as="geometry"/>
                </mxCell>
                <mxCell id="LENq8GOz1p6ndR6-8FsJ-41" style="edgeStyle=none;html=1;exitX=0.5;exitY=1;exitDx=0;exitDy=0;entryX=0.5;entryY=0;entryDx=0;entryDy=0;fontSize=20;endArrow=none;endFill=0;strokeWidth=3;" edge="1" parent="LENq8GOz1p6ndR6-8FsJ-1" source="LENq8GOz1p6ndR6-8FsJ-6" target="LENq8GOz1p6ndR6-8FsJ-23">
                    <mxGeometry relative="1" as="geometry"/>
                </mxCell>
                <mxCell id="LENq8GOz1p6ndR6-8FsJ-6" value="&lt;span style=&quot;font-size: 20px&quot;&gt;Матрица смежностей&lt;br&gt;D[M][M]&lt;/span&gt;" style="shape=parallelogram;perimeter=parallelogramPerimeter;whiteSpace=wrap;html=1;fixedSize=1;strokeWidth=3;" vertex="1" parent="LENq8GOz1p6ndR6-8FsJ-1">
                    <mxGeometry x="90" y="120" width="200" height="80" as="geometry"/>
                </mxCell>
                <mxCell id="LENq8GOz1p6ndR6-8FsJ-72" style="edgeStyle=none;html=1;exitX=0.5;exitY=1;exitDx=0;exitDy=0;fontSize=20;endArrow=none;endFill=0;strokeWidth=3;" edge="1" parent="LENq8GOz1p6ndR6-8FsJ-1" source="LENq8GOz1p6ndR6-8FsJ-10" target="LENq8GOz1p6ndR6-8FsJ-58">
                    <mxGeometry relative="1" as="geometry"/>
                </mxCell>
                <mxCell id="LENq8GOz1p6ndR6-8FsJ-10" value="&lt;font style=&quot;font-size: 20px&quot;&gt;Цикл j=0;j&amp;lt; &lt;br&gt;(кол-во городов-1)&lt;br&gt;&lt;/font&gt;" style="shape=loopLimit;whiteSpace=wrap;html=1;strokeWidth=3;size=40;" vertex="1" parent="LENq8GOz1p6ndR6-8FsJ-1">
                    <mxGeometry x="90" y="650" width="200" height="80" as="geometry"/>
                </mxCell>
                <mxCell id="LENq8GOz1p6ndR6-8FsJ-11" style="edgeStyle=none;html=1;exitX=0.5;exitY=1;exitDx=0;exitDy=0;entryX=0.5;entryY=0;entryDx=0;entryDy=0;endArrow=none;endFill=0;strokeWidth=3;" edge="1" parent="LENq8GOz1p6ndR6-8FsJ-1" source="LENq8GOz1p6ndR6-8FsJ-12" target="LENq8GOz1p6ndR6-8FsJ-4">
                    <mxGeometry relative="1" as="geometry"/>
                </mxCell>
                <mxCell id="LENq8GOz1p6ndR6-8FsJ-12" value="&lt;span style=&quot;font-size: 20px&quot;&gt;Минимальная стоимость,&lt;br&gt;короткий путь&lt;/span&gt;" style="shape=parallelogram;perimeter=parallelogramPerimeter;whiteSpace=wrap;html=1;fixedSize=1;strokeWidth=3;" vertex="1" parent="LENq8GOz1p6ndR6-8FsJ-1">
                    <mxGeometry x="90" y="1600" width="200" height="80" as="geometry"/>
                </mxCell>
                <mxCell id="LENq8GOz1p6ndR6-8FsJ-13" style="edgeStyle=none;html=1;exitX=0.5;exitY=0;exitDx=0;exitDy=0;endArrow=none;endFill=0;strokeWidth=3;" edge="1" parent="LENq8GOz1p6ndR6-8FsJ-1" source="LENq8GOz1p6ndR6-8FsJ-14" target="LENq8GOz1p6ndR6-8FsJ-12">
                    <mxGeometry relative="1" as="geometry">
                        <mxPoint x="190" y="1380.0000000000002" as="targetPoint"/>
                    </mxGeometry>
                </mxCell>
                <mxCell id="LENq8GOz1p6ndR6-8FsJ-14" value="&lt;font style=&quot;font-size: 20px&quot;&gt;&lt;br&gt;&lt;/font&gt;" style="shape=loopLimit;whiteSpace=wrap;html=1;strokeWidth=3;size=40;rotation=-180;" vertex="1" parent="LENq8GOz1p6ndR6-8FsJ-1">
                    <mxGeometry x="90" y="1290" width="200" height="80" as="geometry"/>
                </mxCell>
                <mxCell id="LENq8GOz1p6ndR6-8FsJ-15" value="&lt;font style=&quot;font-size: 20px&quot;&gt;k++&lt;/font&gt;" style="text;html=1;strokeColor=none;fillColor=none;align=center;verticalAlign=middle;whiteSpace=wrap;rounded=0;" vertex="1" parent="LENq8GOz1p6ndR6-8FsJ-1">
                    <mxGeometry x="170" y="1320" width="40" height="20" as="geometry"/>
                </mxCell>
                <mxCell id="LENq8GOz1p6ndR6-8FsJ-82" style="edgeStyle=none;html=1;exitX=0.5;exitY=1;exitDx=0;exitDy=0;entryX=0.5;entryY=1;entryDx=0;entryDy=0;fontSize=20;endArrow=none;endFill=0;strokeWidth=3;" edge="1" parent="LENq8GOz1p6ndR6-8FsJ-1" source="LENq8GOz1p6ndR6-8FsJ-18" target="LENq8GOz1p6ndR6-8FsJ-14">
                    <mxGeometry relative="1" as="geometry">
                        <Array as="points">
                            <mxPoint x="390" y="1280"/>
                            <mxPoint x="190" y="1280"/>
                        </Array>
                    </mxGeometry>
                </mxCell>
                <mxCell id="LENq8GOz1p6ndR6-8FsJ-18" value="&lt;span style=&quot;font-size: 20px&quot;&gt;Минимальная стоимость = текущая стоимость&lt;br&gt;&lt;/span&gt;" style="rounded=0;whiteSpace=wrap;html=1;strokeWidth=3;" vertex="1" parent="LENq8GOz1p6ndR6-8FsJ-1">
                    <mxGeometry x="290" y="1170" width="200" height="80" as="geometry"/>
                </mxCell>
                <mxCell id="LENq8GOz1p6ndR6-8FsJ-22" value="" style="group" vertex="1" connectable="0" parent="LENq8GOz1p6ndR6-8FsJ-1">
                    <mxGeometry x="90" y="210" width="200" height="120" as="geometry"/>
                </mxCell>
                <mxCell id="LENq8GOz1p6ndR6-8FsJ-23" value="&lt;font style=&quot;font-size: 20px&quot;&gt;Вызов подпрограммы &lt;br&gt;инициализации среды (alpha, betta, p, q, Tao(феромон))&lt;br&gt;&lt;/font&gt;" style="rounded=0;whiteSpace=wrap;html=1;strokeWidth=3;" vertex="1" parent="LENq8GOz1p6ndR6-8FsJ-22">
                    <mxGeometry width="200" height="120" as="geometry"/>
                </mxCell>
                <mxCell id="LENq8GOz1p6ndR6-8FsJ-24" value="" style="endArrow=none;html=1;fontSize=20;strokeWidth=3;exitX=0.95;exitY=1.008;exitDx=0;exitDy=0;exitPerimeter=0;" edge="1" parent="LENq8GOz1p6ndR6-8FsJ-22" source="LENq8GOz1p6ndR6-8FsJ-23">
                    <mxGeometry width="50" height="50" relative="1" as="geometry">
                        <mxPoint x="190" y="95.5" as="sourcePoint"/>
                        <mxPoint x="190" as="targetPoint"/>
                    </mxGeometry>
                </mxCell>
                <mxCell id="LENq8GOz1p6ndR6-8FsJ-25" value="" style="endArrow=none;html=1;fontSize=20;strokeWidth=3;exitX=0.058;exitY=1.004;exitDx=0;exitDy=0;exitPerimeter=0;" edge="1" parent="LENq8GOz1p6ndR6-8FsJ-22" source="LENq8GOz1p6ndR6-8FsJ-23">
                    <mxGeometry width="50" height="50" relative="1" as="geometry">
                        <mxPoint x="9.999999999999858" y="116.77999999999997" as="sourcePoint"/>
                        <mxPoint x="11" as="targetPoint"/>
                    </mxGeometry>
                </mxCell>
                <mxCell id="LENq8GOz1p6ndR6-8FsJ-30" style="edgeStyle=none;html=1;exitX=0.5;exitY=0;exitDx=0;exitDy=0;entryX=0.5;entryY=1;entryDx=0;entryDy=0;fontSize=20;endArrow=none;endFill=0;strokeWidth=3;" edge="1" parent="LENq8GOz1p6ndR6-8FsJ-1" source="LENq8GOz1p6ndR6-8FsJ-31">
                    <mxGeometry relative="1" as="geometry">
                        <mxPoint x="190" y="1080" as="targetPoint"/>
                    </mxGeometry>
                </mxCell>
                <mxCell id="LENq8GOz1p6ndR6-8FsJ-81" style="edgeStyle=none;html=1;exitX=1;exitY=0.5;exitDx=0;exitDy=0;entryX=0.5;entryY=0;entryDx=0;entryDy=0;fontSize=20;endArrow=none;endFill=0;strokeWidth=3;" edge="1" parent="LENq8GOz1p6ndR6-8FsJ-1" source="LENq8GOz1p6ndR6-8FsJ-31" target="LENq8GOz1p6ndR6-8FsJ-18">
                    <mxGeometry relative="1" as="geometry">
                        <Array as="points">
                            <mxPoint x="390" y="1140"/>
                        </Array>
                    </mxGeometry>
                </mxCell>
                <mxCell id="LENq8GOz1p6ndR6-8FsJ-83" style="edgeStyle=none;html=1;exitX=0;exitY=0.5;exitDx=0;exitDy=0;entryX=0.5;entryY=1;entryDx=0;entryDy=0;fontSize=20;endArrow=none;endFill=0;strokeWidth=3;" edge="1" parent="LENq8GOz1p6ndR6-8FsJ-1" source="LENq8GOz1p6ndR6-8FsJ-31" target="LENq8GOz1p6ndR6-8FsJ-14">
                    <mxGeometry relative="1" as="geometry">
                        <Array as="points">
                            <mxPoint x="40" y="1140"/>
                            <mxPoint x="40" y="1280"/>
                            <mxPoint x="190" y="1280"/>
                        </Array>
                    </mxGeometry>
                </mxCell>
                <mxCell id="LENq8GOz1p6ndR6-8FsJ-31" value="&lt;span&gt;Минимальная &lt;br&gt;стоимость &amp;lt; текущая стоимость&lt;/span&gt;" style="rhombus;whiteSpace=wrap;html=1;fontSize=20;strokeWidth=3;" vertex="1" parent="LENq8GOz1p6ndR6-8FsJ-1">
                    <mxGeometry x="70" y="1090" width="240" height="100" as="geometry"/>
                </mxCell>
                <mxCell id="LENq8GOz1p6ndR6-8FsJ-32" value="Да" style="text;html=1;strokeColor=none;fillColor=none;align=center;verticalAlign=middle;whiteSpace=wrap;rounded=0;fontSize=20;" vertex="1" parent="LENq8GOz1p6ndR6-8FsJ-1">
                    <mxGeometry x="300" y="1100" width="60" height="30" as="geometry"/>
                </mxCell>
                <mxCell id="LENq8GOz1p6ndR6-8FsJ-33" value="" style="group" vertex="1" connectable="0" parent="LENq8GOz1p6ndR6-8FsJ-1">
                    <mxGeometry x="90" y="430" width="200" height="120" as="geometry"/>
                </mxCell>
                <mxCell id="LENq8GOz1p6ndR6-8FsJ-34" value="&lt;font style=&quot;font-size: 20px&quot;&gt;Вызов подпрограммы &lt;br&gt;инициализации муравьев&lt;br&gt;&lt;/font&gt;" style="rounded=0;whiteSpace=wrap;html=1;strokeWidth=3;" vertex="1" parent="LENq8GOz1p6ndR6-8FsJ-33">
                    <mxGeometry width="200" height="120" as="geometry"/>
                </mxCell>
                <mxCell id="LENq8GOz1p6ndR6-8FsJ-35" value="" style="endArrow=none;html=1;fontSize=20;strokeWidth=3;exitX=0.95;exitY=1.008;exitDx=0;exitDy=0;exitPerimeter=0;" edge="1" parent="LENq8GOz1p6ndR6-8FsJ-33" source="LENq8GOz1p6ndR6-8FsJ-34">
                    <mxGeometry width="50" height="50" relative="1" as="geometry">
                        <mxPoint x="190" y="95.5" as="sourcePoint"/>
                        <mxPoint x="190" as="targetPoint"/>
                    </mxGeometry>
                </mxCell>
                <mxCell id="LENq8GOz1p6ndR6-8FsJ-36" value="" style="endArrow=none;html=1;fontSize=20;strokeWidth=3;exitX=0.058;exitY=1.004;exitDx=0;exitDy=0;exitPerimeter=0;" edge="1" parent="LENq8GOz1p6ndR6-8FsJ-33" source="LENq8GOz1p6ndR6-8FsJ-34">
                    <mxGeometry width="50" height="50" relative="1" as="geometry">
                        <mxPoint x="9.999999999999858" y="116.77999999999997" as="sourcePoint"/>
                        <mxPoint x="11" as="targetPoint"/>
                    </mxGeometry>
                </mxCell>
                <mxCell id="LENq8GOz1p6ndR6-8FsJ-42" value="&lt;font style=&quot;font-size: 20px&quot;&gt;Цикл i=0;i&amp;lt;days_count&lt;br&gt;&lt;/font&gt;" style="shape=loopLimit;whiteSpace=wrap;html=1;strokeWidth=3;size=40;" vertex="1" parent="LENq8GOz1p6ndR6-8FsJ-1">
                    <mxGeometry x="90" y="340" width="200" height="80" as="geometry"/>
                </mxCell>
                <mxCell id="LENq8GOz1p6ndR6-8FsJ-57" value="" style="group" vertex="1" connectable="0" parent="LENq8GOz1p6ndR6-8FsJ-1">
                    <mxGeometry x="90" y="740" width="200" height="120" as="geometry"/>
                </mxCell>
                <mxCell id="LENq8GOz1p6ndR6-8FsJ-58" value="&lt;font style=&quot;font-size: 20px&quot;&gt;Вызов подпрограммы &lt;br&gt;выбора&lt;br&gt;следующего&lt;br&gt;города&lt;br&gt;&lt;/font&gt;" style="rounded=0;whiteSpace=wrap;html=1;strokeWidth=3;" vertex="1" parent="LENq8GOz1p6ndR6-8FsJ-57">
                    <mxGeometry width="200" height="120" as="geometry"/>
                </mxCell>
                <mxCell id="LENq8GOz1p6ndR6-8FsJ-59" value="" style="endArrow=none;html=1;fontSize=20;strokeWidth=3;exitX=0.95;exitY=1.008;exitDx=0;exitDy=0;exitPerimeter=0;" edge="1" parent="LENq8GOz1p6ndR6-8FsJ-57" source="LENq8GOz1p6ndR6-8FsJ-58">
                    <mxGeometry width="50" height="50" relative="1" as="geometry">
                        <mxPoint x="190" y="95.5" as="sourcePoint"/>
                        <mxPoint x="190" as="targetPoint"/>
                    </mxGeometry>
                </mxCell>
                <mxCell id="LENq8GOz1p6ndR6-8FsJ-60" value="" style="endArrow=none;html=1;fontSize=20;strokeWidth=3;exitX=0.058;exitY=1.004;exitDx=0;exitDy=0;exitPerimeter=0;" edge="1" parent="LENq8GOz1p6ndR6-8FsJ-57" source="LENq8GOz1p6ndR6-8FsJ-58">
                    <mxGeometry width="50" height="50" relative="1" as="geometry">
                        <mxPoint x="9.999999999999858" y="116.77999999999997" as="sourcePoint"/>
                        <mxPoint x="11" as="targetPoint"/>
                    </mxGeometry>
                </mxCell>
                <mxCell id="LENq8GOz1p6ndR6-8FsJ-65" style="edgeStyle=none;html=1;exitX=0.5;exitY=1;exitDx=0;exitDy=0;entryX=0.5;entryY=0;entryDx=0;entryDy=0;fontSize=20;endArrow=none;endFill=0;strokeWidth=3;" edge="1" parent="LENq8GOz1p6ndR6-8FsJ-1" source="LENq8GOz1p6ndR6-8FsJ-23" target="LENq8GOz1p6ndR6-8FsJ-42">
                    <mxGeometry relative="1" as="geometry"/>
                </mxCell>
                <mxCell id="LENq8GOz1p6ndR6-8FsJ-66" style="edgeStyle=none;html=1;exitX=0.5;exitY=0;exitDx=0;exitDy=0;entryX=0.5;entryY=1;entryDx=0;entryDy=0;fontSize=20;endArrow=none;endFill=0;strokeWidth=3;" edge="1" parent="LENq8GOz1p6ndR6-8FsJ-1" source="LENq8GOz1p6ndR6-8FsJ-34" target="LENq8GOz1p6ndR6-8FsJ-42">
                    <mxGeometry relative="1" as="geometry"/>
                </mxCell>
                <mxCell id="LENq8GOz1p6ndR6-8FsJ-70" style="edgeStyle=none;html=1;exitX=0.5;exitY=0;exitDx=0;exitDy=0;fontSize=20;endArrow=none;endFill=0;strokeWidth=3;" edge="1" parent="LENq8GOz1p6ndR6-8FsJ-1" source="LENq8GOz1p6ndR6-8FsJ-68" target="LENq8GOz1p6ndR6-8FsJ-34">
                    <mxGeometry relative="1" as="geometry"/>
                </mxCell>
                <mxCell id="LENq8GOz1p6ndR6-8FsJ-71" style="edgeStyle=none;html=1;exitX=0.5;exitY=1;exitDx=0;exitDy=0;entryX=0.5;entryY=0;entryDx=0;entryDy=0;fontSize=20;endArrow=none;endFill=0;strokeWidth=3;" edge="1" parent="LENq8GOz1p6ndR6-8FsJ-1" target="LENq8GOz1p6ndR6-8FsJ-10">
                    <mxGeometry relative="1" as="geometry">
                        <mxPoint x="190" y="630" as="sourcePoint"/>
                    </mxGeometry>
                </mxCell>
                <mxCell id="LENq8GOz1p6ndR6-8FsJ-68" value="&lt;font style=&quot;font-size: 20px&quot;&gt;Цикл k=0;k&amp;lt; &lt;br&gt;(кол-во муравьев)&lt;br&gt;&lt;/font&gt;" style="shape=loopLimit;whiteSpace=wrap;html=1;strokeWidth=3;size=40;" vertex="1" parent="LENq8GOz1p6ndR6-8FsJ-1">
                    <mxGeometry x="90" y="560" width="200" height="80" as="geometry"/>
                </mxCell>
                <mxCell id="LENq8GOz1p6ndR6-8FsJ-78" style="edgeStyle=none;html=1;exitX=0.5;exitY=1;exitDx=0;exitDy=0;fontSize=20;endArrow=none;endFill=0;strokeWidth=3;" edge="1" parent="LENq8GOz1p6ndR6-8FsJ-1" source="LENq8GOz1p6ndR6-8FsJ-74" target="LENq8GOz1p6ndR6-8FsJ-58">
                    <mxGeometry relative="1" as="geometry"/>
                </mxCell>
                <mxCell id="LENq8GOz1p6ndR6-8FsJ-74" value="&lt;font style=&quot;font-size: 20px&quot;&gt;&lt;br&gt;&lt;/font&gt;" style="shape=loopLimit;whiteSpace=wrap;html=1;strokeWidth=3;size=40;rotation=-180;" vertex="1" parent="LENq8GOz1p6ndR6-8FsJ-1">
                    <mxGeometry x="90" y="870" width="200" height="80" as="geometry"/>
                </mxCell>
                <mxCell id="LENq8GOz1p6ndR6-8FsJ-75" value="&lt;font style=&quot;font-size: 20px&quot;&gt;j++&lt;/font&gt;" style="text;html=1;strokeColor=none;fillColor=none;align=center;verticalAlign=middle;whiteSpace=wrap;rounded=0;" vertex="1" parent="LENq8GOz1p6ndR6-8FsJ-1">
                    <mxGeometry x="170" y="900" width="40" height="20" as="geometry"/>
                </mxCell>
                <mxCell id="LENq8GOz1p6ndR6-8FsJ-79" style="edgeStyle=none;html=1;exitX=0.5;exitY=0;exitDx=0;exitDy=0;fontSize=20;endArrow=none;endFill=0;strokeWidth=3;" edge="1" parent="LENq8GOz1p6ndR6-8FsJ-1" target="LENq8GOz1p6ndR6-8FsJ-74">
                    <mxGeometry relative="1" as="geometry">
                        <mxPoint x="190" y="960" as="sourcePoint"/>
                    </mxGeometry>
                </mxCell>
                <mxCell id="LENq8GOz1p6ndR6-8FsJ-86" value="&lt;font style=&quot;font-size: 20px&quot;&gt;&lt;br&gt;&lt;/font&gt;" style="shape=loopLimit;whiteSpace=wrap;html=1;strokeWidth=3;size=40;rotation=-180;" vertex="1" parent="LENq8GOz1p6ndR6-8FsJ-1">
                    <mxGeometry x="90" y="1510" width="200" height="80" as="geometry"/>
                </mxCell>
                <mxCell id="LENq8GOz1p6ndR6-8FsJ-87" value="&lt;font style=&quot;font-size: 20px&quot;&gt;i++&lt;/font&gt;" style="text;html=1;strokeColor=none;fillColor=none;align=center;verticalAlign=middle;whiteSpace=wrap;rounded=0;" vertex="1" parent="LENq8GOz1p6ndR6-8FsJ-1">
                    <mxGeometry x="170" y="1540" width="40" height="20" as="geometry"/>
                </mxCell>
                <mxCell id="LENq8GOz1p6ndR6-8FsJ-88" value="" style="group" vertex="1" connectable="0" parent="LENq8GOz1p6ndR6-8FsJ-1">
                    <mxGeometry x="90" y="960" width="200" height="120" as="geometry"/>
                </mxCell>
                <mxCell id="LENq8GOz1p6ndR6-8FsJ-89" value="&lt;font style=&quot;font-size: 20px&quot;&gt;Вызов подпрограммы &lt;br&gt;добавления последнего&lt;br&gt;города&lt;br&gt;&lt;/font&gt;" style="rounded=0;whiteSpace=wrap;html=1;strokeWidth=3;" vertex="1" parent="LENq8GOz1p6ndR6-8FsJ-88">
                    <mxGeometry width="200" height="120" as="geometry"/>
                </mxCell>
                <mxCell id="LENq8GOz1p6ndR6-8FsJ-90" value="" style="endArrow=none;html=1;fontSize=20;strokeWidth=3;exitX=0.95;exitY=1.008;exitDx=0;exitDy=0;exitPerimeter=0;" edge="1" parent="LENq8GOz1p6ndR6-8FsJ-88" source="LENq8GOz1p6ndR6-8FsJ-89">
                    <mxGeometry width="50" height="50" relative="1" as="geometry">
                        <mxPoint x="190" y="95.5" as="sourcePoint"/>
                        <mxPoint x="190" as="targetPoint"/>
                    </mxGeometry>
                </mxCell>
                <mxCell id="LENq8GOz1p6ndR6-8FsJ-91" value="" style="endArrow=none;html=1;fontSize=20;strokeWidth=3;exitX=0.058;exitY=1.004;exitDx=0;exitDy=0;exitPerimeter=0;" edge="1" parent="LENq8GOz1p6ndR6-8FsJ-88" source="LENq8GOz1p6ndR6-8FsJ-89">
                    <mxGeometry width="50" height="50" relative="1" as="geometry">
                        <mxPoint x="9.999999999999858" y="116.77999999999997" as="sourcePoint"/>
                        <mxPoint x="11" as="targetPoint"/>
                    </mxGeometry>
                </mxCell>
                <mxCell id="LENq8GOz1p6ndR6-8FsJ-92" value="" style="group" vertex="1" connectable="0" parent="LENq8GOz1p6ndR6-8FsJ-1">
                    <mxGeometry x="90" y="1380" width="200" height="120" as="geometry"/>
                </mxCell>
                <mxCell id="LENq8GOz1p6ndR6-8FsJ-93" value="&lt;font style=&quot;font-size: 20px&quot;&gt;Вызов подпрограммы &lt;br&gt;пересчета ферамонов&lt;br&gt;&lt;/font&gt;" style="rounded=0;whiteSpace=wrap;html=1;strokeWidth=3;" vertex="1" parent="LENq8GOz1p6ndR6-8FsJ-92">
                    <mxGeometry width="200" height="120" as="geometry"/>
                </mxCell>
                <mxCell id="LENq8GOz1p6ndR6-8FsJ-94" value="" style="endArrow=none;html=1;fontSize=20;strokeWidth=3;exitX=0.95;exitY=1.008;exitDx=0;exitDy=0;exitPerimeter=0;" edge="1" parent="LENq8GOz1p6ndR6-8FsJ-92" source="LENq8GOz1p6ndR6-8FsJ-93">
                    <mxGeometry width="50" height="50" relative="1" as="geometry">
                        <mxPoint x="190" y="95.5" as="sourcePoint"/>
                        <mxPoint x="190" as="targetPoint"/>
                    </mxGeometry>
                </mxCell>
                <mxCell id="LENq8GOz1p6ndR6-8FsJ-95" value="" style="endArrow=none;html=1;fontSize=20;strokeWidth=3;exitX=0.058;exitY=1.004;exitDx=0;exitDy=0;exitPerimeter=0;" edge="1" parent="LENq8GOz1p6ndR6-8FsJ-92" source="LENq8GOz1p6ndR6-8FsJ-93">
                    <mxGeometry width="50" height="50" relative="1" as="geometry">
                        <mxPoint x="9.999999999999858" y="116.77999999999997" as="sourcePoint"/>
                        <mxPoint x="11" as="targetPoint"/>
                    </mxGeometry>
                </mxCell>
            </root>
        </mxGraphModel>
    </diagram>
</mxfile>